<mxfile host="65bd71144e" modified="2020-10-05T16:37:35.852Z" agent="5.0 (X11; Linux x86_64) AppleWebKit/537.36 (KHTML, like Gecko) Code/1.49.2 Chrome/83.0.4103.122 Electron/9.2.1 Safari/537.36" etag="ypwgqigOs07OqbsidR1s" version="13.6.5">
    <diagram id="6hGFLwfOUW9BJ-s0fimq" name="Page-1">
        <mxGraphModel dx="3864" dy="1378" grid="0" gridSize="10" guides="1" tooltips="1" connect="1" arrows="1" fold="1" page="1" pageScale="1" pageWidth="827" pageHeight="1169" math="0" shadow="0">
            <root>
                <mxCell id="0"/>
                <mxCell id="1" parent="0"/>
                <mxCell id="2" value="" style="group;fillColor=none;strokeColor=#FFFFFF;gradientColor=none;" parent="1" vertex="1" connectable="0">
                    <mxGeometry x="-460" y="510" width="2050" height="430" as="geometry"/>
                </mxCell>
                <mxCell id="3" value="" style="rounded=0;whiteSpace=wrap;html=1;fontStyle=1;fillColor=#7EA6E0;" parent="2" vertex="1">
                    <mxGeometry x="30" y="-170" width="2020" height="600" as="geometry"/>
                </mxCell>
                <mxCell id="4" value="" style="rounded=0;whiteSpace=wrap;html=1;strokeColor=#333333;fillColor=#B1DDF0;" parent="2" vertex="1">
                    <mxGeometry x="70" y="20" width="265" height="155" as="geometry"/>
                </mxCell>
                <mxCell id="5" value="&lt;b&gt;&lt;span style=&quot;font-size: 20px&quot;&gt;&lt;span style=&quot;font-size: 20px&quot;&gt;S&lt;/span&gt;&lt;font style=&quot;font-size: 20px&quot;&gt;ervice&lt;br&gt;&lt;/font&gt;&lt;/span&gt;&lt;font style=&quot;font-size: 20px&quot;&gt;DB&lt;/font&gt;&lt;/b&gt;" style="shape=cylinder;whiteSpace=wrap;html=1;boundedLbl=1;backgroundOutline=1;fillColor=#FFFFFF;strokeColor=#666666;fontColor=#333333;" parent="2" vertex="1">
                    <mxGeometry x="1070" y="130" width="80" height="80" as="geometry"/>
                </mxCell>
                <mxCell id="6" value="" style="rounded=0;whiteSpace=wrap;html=1;fillColor=#647687;strokeColor=#314354;fontColor=#ffffff;" parent="2" vertex="1">
                    <mxGeometry x="1220" width="810" height="340" as="geometry"/>
                </mxCell>
                <mxCell id="7" value="" style="group" parent="2" vertex="1" connectable="0">
                    <mxGeometry x="1250" y="120" width="210" height="100" as="geometry"/>
                </mxCell>
                <mxCell id="8" value="" style="rounded=0;whiteSpace=wrap;html=1;fillColor=#FAD7AC;strokeColor=#d79b00;" parent="7" vertex="1">
                    <mxGeometry width="190" height="90" as="geometry"/>
                </mxCell>
                <mxCell id="9" value="&lt;font size=&quot;1&quot;&gt;&lt;b style=&quot;font-size: 16px&quot;&gt;Source Code Project&lt;/b&gt;&lt;/font&gt;" style="rounded=1;whiteSpace=wrap;html=1;fillColor=#FFFFFF;" parent="7" vertex="1">
                    <mxGeometry x="30" y="20" width="127.5" height="55" as="geometry"/>
                </mxCell>
                <mxCell id="10" value="&lt;font style=&quot;font-size: 20px&quot;&gt;&lt;b&gt;Page&lt;br&gt;DB&lt;/b&gt;&lt;/font&gt;" style="shape=cylinder;whiteSpace=wrap;html=1;boundedLbl=1;backgroundOutline=1;" parent="2" vertex="1">
                    <mxGeometry x="500" y="240" width="60" height="80" as="geometry"/>
                </mxCell>
                <mxCell id="11" value="" style="endArrow=classic;html=1;exitX=0;exitY=0.5;exitDx=0;exitDy=0;entryX=0.99;entryY=0.5;entryDx=0;entryDy=0;entryPerimeter=0;" parent="2" source="10" target="53" edge="1">
                    <mxGeometry width="50" height="50" relative="1" as="geometry">
                        <mxPoint x="270" y="-20" as="sourcePoint"/>
                        <mxPoint x="300" y="183.88999999999987" as="targetPoint"/>
                        <Array as="points">
                            <mxPoint x="450" y="280"/>
                            <mxPoint x="450" y="97"/>
                        </Array>
                    </mxGeometry>
                </mxCell>
                <mxCell id="12" value="" style="group" parent="2" vertex="1" connectable="0">
                    <mxGeometry x="1460" y="120" width="210" height="100" as="geometry"/>
                </mxCell>
                <mxCell id="13" value="" style="group" parent="12" vertex="1" connectable="0">
                    <mxGeometry width="210" height="100" as="geometry"/>
                </mxCell>
                <mxCell id="14" value="" style="rounded=0;whiteSpace=wrap;html=1;fillColor=#FAD7AC;strokeColor=#D79B00;" parent="13" vertex="1">
                    <mxGeometry width="190" height="90" as="geometry"/>
                </mxCell>
                <mxCell id="15" value="&lt;font size=&quot;1&quot;&gt;&lt;b style=&quot;font-size: 16px&quot;&gt;Source Code&lt;br&gt;Parser&lt;br&gt;&lt;/b&gt;&lt;/font&gt;" style="rounded=1;whiteSpace=wrap;html=1;fillColor=#FFFFFF;" parent="13" vertex="1">
                    <mxGeometry x="30" y="20" width="127.5" height="55" as="geometry"/>
                </mxCell>
                <mxCell id="16" value="&lt;meta http-equiv=&quot;content-type&quot; content=&quot;text/html; charset=utf-8&quot;&gt;&lt;img class=&quot;tile--img__img  js-lazyload&quot; src=&quot;https://external-content.duckduckgo.com/iu/?u=https%3A%2F%2Ftse3.mm.bing.net%2Fth%3Fid%3DOIP.guV1-gVdwZIkkeowOYIABAHaKO%26pid%3DApi&amp;amp;f=1&quot; data-src=&quot;//external-content.duckduckgo.com/iu/?u=https%3A%2F%2Ftse3.mm.bing.net%2Fth%3Fid%3DOIP.guV1-gVdwZIkkeowOYIABAHaKO%26pid%3DApi&amp;amp;f=1&quot; alt=&quot;Selenium, Jenkins, Robots, Oh My!&quot;&gt;" style="text;whiteSpace=wrap;html=1;" parent="2" vertex="1">
                    <mxGeometry x="1600" width="50" height="80" as="geometry"/>
                </mxCell>
                <mxCell id="17" value="&lt;b&gt;Class&lt;br&gt;Storage&lt;/b&gt;" style="shape=cylinder;whiteSpace=wrap;html=1;boundedLbl=1;backgroundOutline=1;fillColor=#FFFFFF;" parent="2" vertex="1">
                    <mxGeometry x="1250" y="250" width="60" height="80" as="geometry"/>
                </mxCell>
                <mxCell id="18" value="" style="endArrow=classic;html=1;exitX=0.25;exitY=1;exitDx=0;exitDy=0;entryX=0.5;entryY=0;entryDx=0;entryDy=0;" parent="2" source="9" target="17" edge="1">
                    <mxGeometry width="50" height="50" relative="1" as="geometry">
                        <mxPoint x="1140" y="20" as="sourcePoint"/>
                        <mxPoint x="1190" y="-30" as="targetPoint"/>
                        <Array as="points">
                            <mxPoint x="1312" y="230"/>
                            <mxPoint x="1280" y="230"/>
                        </Array>
                    </mxGeometry>
                </mxCell>
                <mxCell id="19" value="" style="endArrow=classic;html=1;exitX=0.5;exitY=0;exitDx=0;exitDy=0;entryX=0.5;entryY=0;entryDx=0;entryDy=0;" parent="2" source="15" target="5" edge="1">
                    <mxGeometry width="50" height="50" relative="1" as="geometry">
                        <mxPoint x="1140" y="20" as="sourcePoint"/>
                        <mxPoint x="1190" y="-30" as="targetPoint"/>
                        <Array as="points">
                            <mxPoint x="1554" y="80"/>
                            <mxPoint x="1110" y="80"/>
                        </Array>
                    </mxGeometry>
                </mxCell>
                <mxCell id="20" value="" style="group" parent="2" vertex="1" connectable="0">
                    <mxGeometry x="1460" y="240" width="210" height="100" as="geometry"/>
                </mxCell>
                <mxCell id="21" value="" style="group" parent="20" vertex="1" connectable="0">
                    <mxGeometry width="210" height="100" as="geometry"/>
                </mxCell>
                <mxCell id="22" value="" style="group" parent="21" vertex="1" connectable="0">
                    <mxGeometry width="210" height="100" as="geometry"/>
                </mxCell>
                <mxCell id="23" value="" style="rounded=0;whiteSpace=wrap;html=1;fillColor=#FAD7AC;strokeColor=#D79B00;" parent="22" vertex="1">
                    <mxGeometry width="190" height="90" as="geometry"/>
                </mxCell>
                <mxCell id="24" value="&lt;span style=&quot;font-size: 16px&quot;&gt;&lt;b&gt;Service Component Generator&lt;/b&gt;&lt;/span&gt;" style="rounded=1;whiteSpace=wrap;html=1;fillColor=#FFFFFF;" parent="22" vertex="1">
                    <mxGeometry x="30" y="20" width="127.5" height="55" as="geometry"/>
                </mxCell>
                <mxCell id="25" value="" style="endArrow=classic;html=1;exitX=0.5;exitY=1;exitDx=0;exitDy=0;entryX=0.5;entryY=0;entryDx=0;entryDy=0;" parent="2" source="15" target="24" edge="1">
                    <mxGeometry width="50" height="50" relative="1" as="geometry">
                        <mxPoint x="1360" y="20" as="sourcePoint"/>
                        <mxPoint x="1410" y="-30" as="targetPoint"/>
                    </mxGeometry>
                </mxCell>
                <mxCell id="26" value="" style="group" parent="2" vertex="1" connectable="0">
                    <mxGeometry x="1690" y="90" width="150" height="80" as="geometry"/>
                </mxCell>
                <mxCell id="27" value="" style="group" parent="26" vertex="1" connectable="0">
                    <mxGeometry width="150" height="80" as="geometry"/>
                </mxCell>
                <mxCell id="28" value="" style="rounded=0;whiteSpace=wrap;html=1;fillColor=#FAD7AC;strokeColor=#D79B00;" parent="27" vertex="1">
                    <mxGeometry width="135.7142857142857" height="72" as="geometry"/>
                </mxCell>
                <mxCell id="29" value="&lt;font size=&quot;1&quot;&gt;&lt;b style=&quot;font-size: 16px&quot;&gt;WSDL&lt;br&gt;Generator&lt;br&gt;&lt;/b&gt;&lt;/font&gt;" style="rounded=1;whiteSpace=wrap;html=1;fillColor=#FFFFFF;" parent="27" vertex="1">
                    <mxGeometry x="21.428571428571423" y="16" width="91.07142857142857" height="44" as="geometry"/>
                </mxCell>
                <mxCell id="30" value="&lt;b style=&quot;font-size: 13px&quot;&gt;Service Component API Storage&lt;br&gt;(Jar)&lt;br&gt;&lt;/b&gt;" style="shape=cylinder;whiteSpace=wrap;html=1;boundedLbl=1;backgroundOutline=1;fillColor=#FFFFFF;" parent="2" vertex="1">
                    <mxGeometry x="1710" y="240" width="90" height="95" as="geometry"/>
                </mxCell>
                <mxCell id="31" value="&lt;b&gt;WSDL&lt;br&gt;Storage&lt;br&gt;&lt;/b&gt;" style="shape=cylinder;whiteSpace=wrap;html=1;boundedLbl=1;backgroundOutline=1;fillColor=#FFFFFF;" parent="2" vertex="1">
                    <mxGeometry x="1860" y="88" width="60" height="80" as="geometry"/>
                </mxCell>
                <mxCell id="32" value="" style="endArrow=classic;html=1;exitX=1;exitY=0.5;exitDx=0;exitDy=0;entryX=0;entryY=0.5;entryDx=0;entryDy=0;" parent="2" source="24" target="29" edge="1">
                    <mxGeometry width="50" height="50" relative="1" as="geometry">
                        <mxPoint x="1360" y="20" as="sourcePoint"/>
                        <mxPoint x="1410" y="-30" as="targetPoint"/>
                        <Array as="points">
                            <mxPoint x="1670" y="288"/>
                            <mxPoint x="1670" y="128"/>
                        </Array>
                    </mxGeometry>
                </mxCell>
                <mxCell id="33" value="" style="endArrow=classic;html=1;exitX=1;exitY=0.5;exitDx=0;exitDy=0;entryX=0;entryY=0.5;entryDx=0;entryDy=0;" parent="2" source="24" target="30" edge="1">
                    <mxGeometry width="50" height="50" relative="1" as="geometry">
                        <mxPoint x="1360" y="20" as="sourcePoint"/>
                        <mxPoint x="1410" y="-30" as="targetPoint"/>
                    </mxGeometry>
                </mxCell>
                <mxCell id="34" value="" style="endArrow=classic;html=1;exitX=1;exitY=0.5;exitDx=0;exitDy=0;entryX=0;entryY=0.5;entryDx=0;entryDy=0;" parent="2" source="29" target="31" edge="1">
                    <mxGeometry width="50" height="50" relative="1" as="geometry">
                        <mxPoint x="1360" y="20" as="sourcePoint"/>
                        <mxPoint x="1410" y="-30" as="targetPoint"/>
                    </mxGeometry>
                </mxCell>
                <mxCell id="35" value="" style="group;fillColor=#fa6800;strokeColor=#C73500;fontColor=#ffffff;" parent="2" vertex="1" connectable="0">
                    <mxGeometry x="1860" y="210" width="150" height="80" as="geometry"/>
                </mxCell>
                <mxCell id="36" value="" style="group" parent="35" vertex="1" connectable="0">
                    <mxGeometry width="150" height="80" as="geometry"/>
                </mxCell>
                <mxCell id="37" value="" style="rounded=0;whiteSpace=wrap;html=1;fillColor=#fad7ac;strokeColor=#b46504;" parent="36" vertex="1">
                    <mxGeometry width="150" height="80" as="geometry"/>
                </mxCell>
                <mxCell id="38" value="&lt;font style=&quot;font-size: 18px&quot;&gt;&lt;b&gt;API Server&lt;/b&gt;&lt;/font&gt;" style="rounded=1;whiteSpace=wrap;html=1;fillColor=#FFFFFF;" parent="36" vertex="1">
                    <mxGeometry x="15" y="10" width="120" height="60" as="geometry"/>
                </mxCell>
                <mxCell id="39" value="" style="endArrow=classic;html=1;exitX=1;exitY=0.5;exitDx=0;exitDy=0;entryX=0;entryY=0.5;entryDx=0;entryDy=0;" parent="2" source="30" target="38" edge="1">
                    <mxGeometry width="50" height="50" relative="1" as="geometry">
                        <mxPoint x="1360" y="20" as="sourcePoint"/>
                        <mxPoint x="1410" y="-30" as="targetPoint"/>
                        <Array as="points">
                            <mxPoint x="1840" y="288"/>
                            <mxPoint x="1840" y="250"/>
                        </Array>
                    </mxGeometry>
                </mxCell>
                <mxCell id="41" value="&lt;font style=&quot;font-size: 26px&quot; color=&quot;#ffd966&quot;&gt;&lt;b&gt;3. Stage1 Edit Source Code, And do ./gradlew build&lt;/b&gt;&lt;/font&gt;" style="text;html=1;strokeColor=none;fillColor=none;align=center;verticalAlign=middle;whiteSpace=wrap;rounded=0;strokeWidth=4;" parent="2" vertex="1">
                    <mxGeometry x="1350" y="380" width="280" height="20" as="geometry"/>
                </mxCell>
                <mxCell id="42" value="&lt;span style=&quot;font-size: 23px&quot;&gt;Get source code for online editor&lt;/span&gt;" style="text;html=1;strokeColor=none;fillColor=none;align=center;verticalAlign=middle;whiteSpace=wrap;rounded=0;strokeWidth=4;" parent="2" vertex="1">
                    <mxGeometry x="980" y="240" width="200" height="20" as="geometry"/>
                </mxCell>
                <mxCell id="43" value="&lt;span style=&quot;color: rgb(0 , 0 , 0) ; font-family: &amp;#34;helvetica&amp;#34; ; font-style: normal ; font-weight: 400 ; letter-spacing: normal ; text-align: center ; text-indent: 0px ; text-transform: none ; word-spacing: 0px ; float: none ; display: inline&quot;&gt;&lt;font style=&quot;font-size: 16px&quot;&gt;Save Source Code to DB after parsing Projects&lt;/font&gt;&lt;/span&gt;" style="text;whiteSpace=wrap;html=1;" parent="2" vertex="1">
                    <mxGeometry x="1230" y="40" width="340" height="30" as="geometry"/>
                </mxCell>
                <mxCell id="44" value="&lt;font style=&quot;font-size: 18px&quot;&gt;Send back ServiceComponents with Priority after Matchmaking&lt;/font&gt;" style="text;html=1;strokeColor=none;fillColor=none;align=center;verticalAlign=middle;whiteSpace=wrap;rounded=0;" parent="2" vertex="1">
                    <mxGeometry x="350" y="350" width="160" height="20" as="geometry"/>
                </mxCell>
                <mxCell id="45" value="" style="rounded=0;whiteSpace=wrap;html=1;strokeColor=#333333;fillColor=#B1DDF0;" parent="2" vertex="1">
                    <mxGeometry x="665" y="60" width="220" height="140" as="geometry"/>
                </mxCell>
                <mxCell id="46" value="" style="endArrow=classic;html=1;exitX=0.5;exitY=1;exitDx=0;exitDy=0;entryX=0.5;entryY=0;entryDx=0;entryDy=0;fillColor=#f8cecc;strokeWidth=1;strokeColor=#333333;" parent="2" source="45" target="16" edge="1">
                    <mxGeometry width="50" height="50" relative="1" as="geometry">
                        <mxPoint x="670.2399999999998" y="345.55999999999995" as="sourcePoint"/>
                        <mxPoint x="1240" y="-30" as="targetPoint"/>
                        <Array as="points">
                            <mxPoint x="775" y="410"/>
                            <mxPoint x="1110" y="410"/>
                            <mxPoint x="1190" y="410"/>
                            <mxPoint x="1190" y="-70"/>
                            <mxPoint x="1625" y="-70"/>
                        </Array>
                    </mxGeometry>
                </mxCell>
                <mxCell id="47" value="" style="endArrow=classic;html=1;entryX=0.5;entryY=1;entryDx=0;entryDy=0;exitX=0.5;exitY=1;exitDx=0;exitDy=0;strokeWidth=1;strokeColor=#333333;" parent="2" source="52" target="9" edge="1">
                    <mxGeometry width="50" height="50" relative="1" as="geometry">
                        <mxPoint x="670.2399999999998" y="345.55999999999995" as="sourcePoint"/>
                        <mxPoint x="820" y="220" as="targetPoint"/>
                        <Array as="points">
                            <mxPoint x="775" y="410"/>
                            <mxPoint x="1010" y="410"/>
                            <mxPoint x="1345" y="410"/>
                        </Array>
                    </mxGeometry>
                </mxCell>
                <mxCell id="49" value="&lt;font style=&quot;font-size: 42px&quot;&gt;&lt;b&gt;Docker Container&lt;/b&gt;&lt;/font&gt;" style="text;html=1;strokeColor=none;fillColor=none;align=center;verticalAlign=middle;whiteSpace=wrap;rounded=0;" parent="2" vertex="1">
                    <mxGeometry x="790" y="-140" width="370" height="20" as="geometry"/>
                </mxCell>
                <mxCell id="50" value="&lt;font style=&quot;font-size: 18px&quot; color=&quot;#333333&quot;&gt;&lt;b&gt;Angular Web App&lt;/b&gt;&lt;/font&gt;" style="rounded=0;whiteSpace=wrap;html=1;strokeColor=#333333;fontColor=#ffffff;fillColor=#FAD7AC;" parent="2" vertex="1">
                    <mxGeometry x="122.5" y="320" width="160" height="80" as="geometry"/>
                </mxCell>
                <mxCell id="51" value="" style="endArrow=classic;html=1;exitX=0.5;exitY=1;exitDx=0;exitDy=0;entryX=0.5;entryY=0;entryDx=0;entryDy=0;" parent="2" source="53" target="50" edge="1">
                    <mxGeometry width="50" height="50" relative="1" as="geometry">
                        <mxPoint x="590" y="-30" as="sourcePoint"/>
                        <mxPoint x="640" y="-80" as="targetPoint"/>
                    </mxGeometry>
                </mxCell>
                <mxCell id="52" value="&lt;font style=&quot;font-size: 20px&quot;&gt;&lt;b&gt;UI-Design-Server&lt;/b&gt;&lt;/font&gt;" style="rounded=1;whiteSpace=wrap;html=1;strokeColor=#333333;fillColor=#ffffff;gradientColor=none;" parent="2" vertex="1">
                    <mxGeometry x="681.25" y="85" width="187.5" height="90" as="geometry"/>
                </mxCell>
                <mxCell id="53" value="&lt;font style=&quot;font-size: 20px&quot;&gt;&lt;b&gt;UI-Composition-Engine&lt;/b&gt;&lt;/font&gt;" style="rounded=1;whiteSpace=wrap;html=1;strokeColor=#333333;fillColor=#ffffff;gradientColor=none;" parent="2" vertex="1">
                    <mxGeometry x="82.5" y="52.5" width="240" height="90" as="geometry"/>
                </mxCell>
                <mxCell id="93" value="" style="endArrow=classic;html=1;strokeColor=#333333;strokeWidth=1;exitX=0;exitY=0.5;exitDx=0;exitDy=0;entryX=1;entryY=0.5;entryDx=0;entryDy=0;" parent="2" source="5" target="52" edge="1">
                    <mxGeometry width="50" height="50" relative="1" as="geometry">
                        <mxPoint x="900" y="170" as="sourcePoint"/>
                        <mxPoint x="950" y="120" as="targetPoint"/>
                        <Array as="points">
                            <mxPoint x="960" y="170"/>
                            <mxPoint x="960" y="130"/>
                        </Array>
                    </mxGeometry>
                </mxCell>
                <mxCell id="48" value="" style="endArrow=classic;html=1;exitX=0;exitY=0.5;exitDx=0;exitDy=0;entryX=1;entryY=0.5;entryDx=0;entryDy=0;" parent="2" source="52" target="10" edge="1">
                    <mxGeometry width="50" height="50" relative="1" as="geometry">
                        <mxPoint x="550.4699999999998" y="183.88999999999987" as="sourcePoint"/>
                        <mxPoint x="830" y="-30" as="targetPoint"/>
                        <Array as="points">
                            <mxPoint x="600" y="130"/>
                            <mxPoint x="600" y="280"/>
                        </Array>
                    </mxGeometry>
                </mxCell>
                <mxCell id="95" value="&lt;div style=&quot;text-align: center&quot;&gt;&lt;font face=&quot;helvetica&quot; color=&quot;#ffd966&quot; size=&quot;1&quot;&gt;&lt;b style=&quot;font-size: 26px&quot;&gt;2. query stage1&lt;/b&gt;&lt;/font&gt;&lt;/div&gt;" style="text;whiteSpace=wrap;html=1;" parent="2" vertex="1">
                    <mxGeometry x="868.75" y="60" width="150" height="50" as="geometry"/>
                </mxCell>
                <mxCell id="54" value="" style="group" parent="1" vertex="1" connectable="0">
                    <mxGeometry x="890" y="190" width="190" height="120" as="geometry"/>
                </mxCell>
                <mxCell id="55" value="" style="group" parent="54" vertex="1" connectable="0">
                    <mxGeometry width="190" height="120" as="geometry"/>
                </mxCell>
                <mxCell id="56" value="" style="rounded=0;whiteSpace=wrap;html=1;strokeColor=#36393d;fillColor=#FF6666;" parent="55" vertex="1">
                    <mxGeometry width="171.90476190476187" height="108" as="geometry"/>
                </mxCell>
                <mxCell id="57" value="&lt;font size=&quot;1&quot;&gt;&lt;b style=&quot;font-size: 16px&quot;&gt;Auto-Fix&lt;br&gt;&lt;/b&gt;&lt;/font&gt;" style="rounded=1;whiteSpace=wrap;html=1;fillColor=#FFFFFF;" parent="55" vertex="1">
                    <mxGeometry x="27.142857142857135" y="24" width="115.35714285714285" height="66" as="geometry"/>
                </mxCell>
                <mxCell id="58" value="" style="group" parent="1" vertex="1" connectable="0">
                    <mxGeometry x="-360" y="180" width="190" height="120" as="geometry"/>
                </mxCell>
                <mxCell id="59" value="" style="group" parent="58" vertex="1" connectable="0">
                    <mxGeometry width="190" height="120" as="geometry"/>
                </mxCell>
                <mxCell id="60" value="" style="rounded=0;whiteSpace=wrap;html=1;fillColor=#9999FF;strokeColor=#36393d;" parent="59" vertex="1">
                    <mxGeometry width="171.90476190476187" height="108" as="geometry"/>
                </mxCell>
                <mxCell id="61" value="&lt;font size=&quot;1&quot;&gt;&lt;b style=&quot;font-size: 16px&quot;&gt;Matchmaking&lt;br&gt;&lt;/b&gt;&lt;/font&gt;" style="rounded=1;whiteSpace=wrap;html=1;fillColor=#FFFFFF;arcSize=17;" parent="59" vertex="1">
                    <mxGeometry x="27.142857142857135" y="24" width="115.35714285714285" height="66" as="geometry"/>
                </mxCell>
                <mxCell id="62" value="" style="endArrow=classic;startArrow=classic;html=1;entryX=0;entryY=0.5;entryDx=0;entryDy=0;exitX=0;exitY=0.5;exitDx=0;exitDy=0;fillColor=#e1d5e7;strokeWidth=1;strokeColor=#333333;" parent="1" source="9" target="57" edge="1">
                    <mxGeometry width="50" height="50" relative="1" as="geometry">
                        <mxPoint x="320" y="520" as="sourcePoint"/>
                        <mxPoint x="370" y="470" as="targetPoint"/>
                        <Array as="points">
                            <mxPoint x="710" y="678"/>
                            <mxPoint x="710" y="247"/>
                        </Array>
                    </mxGeometry>
                </mxCell>
                <mxCell id="63" value="&lt;font style=&quot;font-size: 22px&quot;&gt;&lt;b&gt;3. If build source code project failed ,&lt;br&gt;send to Auto-Fix&lt;/b&gt;&lt;/font&gt;" style="text;html=1;strokeColor=none;fillColor=none;align=center;verticalAlign=middle;whiteSpace=wrap;rounded=0;" parent="1" vertex="1">
                    <mxGeometry x="680" y="100" width="190" height="160" as="geometry"/>
                </mxCell>
                <mxCell id="64" value="&lt;font color=&quot;#ffd966&quot; size=&quot;1&quot;&gt;&lt;b style=&quot;font-size: 26px&quot;&gt;1. Send target wsdl and wsdls (filtered after query stage1)&amp;nbsp;&lt;/b&gt;&lt;/font&gt;" style="text;html=1;strokeColor=none;fillColor=none;align=center;verticalAlign=middle;whiteSpace=wrap;rounded=0;" parent="1" vertex="1">
                    <mxGeometry x="-130" y="190" width="160" height="20" as="geometry"/>
                </mxCell>
                <mxCell id="65" value="" style="endArrow=classic;startArrow=classic;html=1;strokeColor=#333333;strokeWidth=2;exitX=1;exitY=0.5;exitDx=0;exitDy=0;entryX=0;entryY=0.25;entryDx=0;entryDy=0;" parent="1" source="61" target="52" edge="1">
                    <mxGeometry width="50" height="50" relative="1" as="geometry">
                        <mxPoint x="270" y="510" as="sourcePoint"/>
                        <mxPoint x="129.01999999999998" y="820.56" as="targetPoint"/>
                        <Array as="points">
                            <mxPoint x="30" y="240"/>
                            <mxPoint x="30" y="617"/>
                        </Array>
                    </mxGeometry>
                </mxCell>
                <mxCell id="66" value="" style="rounded=0;whiteSpace=wrap;html=1;strokeColor=#333333;fillColor=#B1DDF0;" parent="1" vertex="1">
                    <mxGeometry x="207.5" y="150" width="215" height="150" as="geometry"/>
                </mxCell>
                <mxCell id="67" value="" style="endArrow=classic;startArrow=classic;html=1;entryX=0.5;entryY=1;entryDx=0;entryDy=0;" parent="1" source="52" target="73" edge="1">
                    <mxGeometry width="50" height="50" relative="1" as="geometry">
                        <mxPoint x="550" y="620" as="sourcePoint"/>
                        <mxPoint x="600" y="570" as="targetPoint"/>
                    </mxGeometry>
                </mxCell>
                <mxCell id="68" value="" style="group;fillColor=#f8cecc;strokeColor=#b85450;" parent="1" vertex="1" connectable="0">
                    <mxGeometry x="480" y="1029" width="240" height="140" as="geometry"/>
                </mxCell>
                <mxCell id="69" value="" style="rounded=0;whiteSpace=wrap;html=1;strokeColor=#b85450;fillColor=#FF3333;" parent="68" vertex="1">
                    <mxGeometry width="240" height="140" as="geometry"/>
                </mxCell>
                <mxCell id="70" value="&lt;font style=&quot;font-size: 20px&quot;&gt;&lt;b&gt;BPEL Engine&lt;/b&gt;&lt;/font&gt;" style="rounded=1;whiteSpace=wrap;html=1;strokeColor=#333333;fillColor=#ffffff;gradientColor=none;" parent="68" vertex="1">
                    <mxGeometry x="47.41935483870967" y="30.625" width="145.16129032258064" height="78.75" as="geometry"/>
                </mxCell>
                <mxCell id="71" value="" style="endArrow=classic;startArrow=classic;html=1;entryX=0.5;entryY=1;entryDx=0;entryDy=0;exitX=0;exitY=0.5;exitDx=0;exitDy=0;" parent="1" source="70" target="50" edge="1">
                    <mxGeometry width="50" height="50" relative="1" as="geometry">
                        <mxPoint x="450" y="1080" as="sourcePoint"/>
                        <mxPoint x="500" y="1030" as="targetPoint"/>
                        <Array as="points">
                            <mxPoint x="-257" y="1099"/>
                        </Array>
                    </mxGeometry>
                </mxCell>
                <mxCell id="72" value="" style="endArrow=classic;startArrow=none;html=1;entryX=1;entryY=0.5;entryDx=0;entryDy=0;exitX=1;exitY=0.5;exitDx=0;exitDy=0;startFill=0;" parent="1" source="70" target="31" edge="1">
                    <mxGeometry width="50" height="50" relative="1" as="geometry">
                        <mxPoint x="990" y="1080" as="sourcePoint"/>
                        <mxPoint x="1040" y="1030" as="targetPoint"/>
                        <Array as="points">
                            <mxPoint x="1630" y="1099"/>
                            <mxPoint x="1630" y="638"/>
                        </Array>
                    </mxGeometry>
                </mxCell>
                <mxCell id="73" value="&lt;font style=&quot;font-size: 20px&quot;&gt;&lt;b&gt;UI-Design-Client&lt;/b&gt;&lt;/font&gt;" style="rounded=1;whiteSpace=wrap;html=1;strokeColor=#333333;fillColor=#ffffff;gradientColor=none;" parent="1" vertex="1">
                    <mxGeometry x="221.25" y="180" width="187.5" height="90" as="geometry"/>
                </mxCell>
                <mxCell id="74" value="&lt;font style=&quot;font-size: 22px&quot;&gt;&lt;b&gt;Communication Using WebSocket&lt;/b&gt;&lt;/font&gt;" style="text;html=1;strokeColor=none;fillColor=none;align=center;verticalAlign=middle;whiteSpace=wrap;rounded=0;" parent="1" vertex="1">
                    <mxGeometry x="-178.75" y="1070" width="400" height="20" as="geometry"/>
                </mxCell>
                <mxCell id="75" value="" style="endArrow=classic;startArrow=classic;html=1;exitX=0.5;exitY=0;exitDx=0;exitDy=0;entryX=0.5;entryY=1;entryDx=0;entryDy=0;" parent="1" source="70" target="38" edge="1">
                    <mxGeometry width="50" height="50" relative="1" as="geometry">
                        <mxPoint x="1100" y="800" as="sourcePoint"/>
                        <mxPoint x="1150" y="750" as="targetPoint"/>
                        <Array as="points">
                            <mxPoint x="600" y="990"/>
                            <mxPoint x="1475" y="990"/>
                        </Array>
                    </mxGeometry>
                </mxCell>
                <mxCell id="76" value="&lt;font style=&quot;font-size: 22px&quot;&gt;&lt;b&gt;Communication Using RESTFul API&lt;/b&gt;&lt;/font&gt;" style="text;html=1;strokeColor=none;fillColor=none;align=center;verticalAlign=middle;whiteSpace=wrap;rounded=0;" parent="1" vertex="1">
                    <mxGeometry x="690" y="960" width="400" height="20" as="geometry"/>
                </mxCell>
                <mxCell id="77" value="&lt;b&gt;&lt;font style=&quot;font-size: 20px&quot;&gt;BPEL Storage&lt;/font&gt;&lt;br&gt;&lt;/b&gt;" style="shape=cylinder;whiteSpace=wrap;html=1;boundedLbl=1;backgroundOutline=1;fillColor=#FFFFFF;" parent="1" vertex="1">
                    <mxGeometry x="910" y="1169" width="92.5" height="100" as="geometry"/>
                </mxCell>
                <mxCell id="78" value="" style="endArrow=classic;html=1;exitX=0.5;exitY=1;exitDx=0;exitDy=0;entryX=0;entryY=0.5;entryDx=0;entryDy=0;" parent="1" source="70" target="77" edge="1">
                    <mxGeometry width="50" height="50" relative="1" as="geometry">
                        <mxPoint x="1010" y="1190" as="sourcePoint"/>
                        <mxPoint x="1060" y="1140" as="targetPoint"/>
                        <Array as="points">
                            <mxPoint x="600" y="1220"/>
                        </Array>
                    </mxGeometry>
                </mxCell>
                <mxCell id="79" value="&lt;font size=&quot;1&quot;&gt;&lt;b style=&quot;font-size: 39px&quot;&gt;Requirement&lt;/b&gt;&lt;/font&gt;" style="rounded=0;whiteSpace=wrap;html=1;strokeColor=#333333;fillColor=#FFFFFF;gradientColor=none;" parent="1" vertex="1">
                    <mxGeometry x="-448.75" y="1264.5" width="270" height="149" as="geometry"/>
                </mxCell>
                <mxCell id="80" value="&lt;font style=&quot;font-size: 20px&quot;&gt;&lt;b&gt;Usecae Storage&lt;/b&gt;&lt;/font&gt;" style="shape=cylinder;whiteSpace=wrap;html=1;boundedLbl=1;backgroundOutline=1;strokeColor=#333333;fillColor=#FFFFFF;gradientColor=none;" parent="1" vertex="1">
                    <mxGeometry x="110" y="1279" width="170" height="120" as="geometry"/>
                </mxCell>
                <mxCell id="81" value="" style="endArrow=classic;html=1;exitX=1;exitY=0.5;exitDx=0;exitDy=0;entryX=0;entryY=0.5;entryDx=0;entryDy=0;" parent="1" source="79" target="80" edge="1">
                    <mxGeometry width="50" height="50" relative="1" as="geometry">
                        <mxPoint x="660" y="1200" as="sourcePoint"/>
                        <mxPoint x="710" y="1150" as="targetPoint"/>
                    </mxGeometry>
                </mxCell>
                <mxCell id="82" value="&lt;font size=&quot;1&quot;&gt;&lt;b style=&quot;font-size: 35px&quot;&gt;Handwrite&lt;/b&gt;&lt;/font&gt;" style="text;html=1;strokeColor=none;fillColor=none;align=center;verticalAlign=middle;whiteSpace=wrap;rounded=0;" parent="1" vertex="1">
                    <mxGeometry x="-100" y="1279" width="140" height="40" as="geometry"/>
                </mxCell>
                <mxCell id="83" value="" style="group" parent="1" vertex="1" connectable="0">
                    <mxGeometry x="550" y="1269" width="210" height="140" as="geometry"/>
                </mxCell>
                <mxCell id="84" value="" style="group" parent="83" vertex="1" connectable="0">
                    <mxGeometry width="210" height="140" as="geometry"/>
                </mxCell>
                <mxCell id="85" value="" style="rounded=0;whiteSpace=wrap;html=1;fillColor=#999999;strokeColor=#666666;fontColor=#333333;" parent="84" vertex="1">
                    <mxGeometry width="210" height="140" as="geometry"/>
                </mxCell>
                <mxCell id="86" value="&lt;span style=&quot;font-size: 20px&quot;&gt;&lt;b&gt;NLP Project&lt;/b&gt;&lt;/span&gt;" style="rounded=1;whiteSpace=wrap;html=1;strokeColor=#333333;fillColor=#ffffff;gradientColor=none;" parent="84" vertex="1">
                    <mxGeometry x="11.25" y="30.625" width="187.5" height="78.75" as="geometry"/>
                </mxCell>
                <mxCell id="87" value="" style="endArrow=classic;html=1;exitX=1;exitY=0.5;exitDx=0;exitDy=0;entryX=0;entryY=0.5;entryDx=0;entryDy=0;" parent="1" source="80" target="86" edge="1">
                    <mxGeometry width="50" height="50" relative="1" as="geometry">
                        <mxPoint x="660" y="1200" as="sourcePoint"/>
                        <mxPoint x="710" y="1150" as="targetPoint"/>
                        <Array as="points"/>
                    </mxGeometry>
                </mxCell>
                <mxCell id="40" value="&lt;font color=&quot;#ffd966&quot; size=&quot;1&quot;&gt;&lt;b style=&quot;font-size: 26px&quot;&gt;4. Stage2 Trigger Jenkins Pipeline&lt;/b&gt;&lt;/font&gt;" style="text;html=1;strokeColor=none;fillColor=none;align=center;verticalAlign=middle;whiteSpace=wrap;rounded=0;strokeWidth=4;" parent="1" vertex="1">
                    <mxGeometry x="825" y="390" width="230" height="20" as="geometry"/>
                </mxCell>
                <mxCell id="94" value="" style="group" parent="1" vertex="1" connectable="0">
                    <mxGeometry x="1130" y="1269" width="261.25" height="140" as="geometry"/>
                </mxCell>
                <mxCell id="88" value="" style="group;strokeColor=#b85450;fillColor=#FF3333;" parent="94" vertex="1" connectable="0">
                    <mxGeometry width="261.25" height="140" as="geometry"/>
                </mxCell>
                <mxCell id="90" value="&lt;font style=&quot;font-size: 20px&quot;&gt;&lt;b&gt;BPEL Generator&lt;/b&gt;&lt;/font&gt;" style="rounded=1;whiteSpace=wrap;html=1;strokeColor=#333333;fillColor=#ffffff;gradientColor=none;" parent="94" vertex="1">
                    <mxGeometry x="36.88000000000011" y="25" width="187.5" height="90" as="geometry"/>
                </mxCell>
                <mxCell id="91" value="" style="endArrow=classic;html=1;exitX=1;exitY=0.5;exitDx=0;exitDy=0;entryX=0;entryY=0.5;entryDx=0;entryDy=0;" parent="1" source="86" target="90" edge="1">
                    <mxGeometry width="50" height="50" relative="1" as="geometry">
                        <mxPoint x="630" y="990" as="sourcePoint"/>
                        <mxPoint x="680" y="940" as="targetPoint"/>
                    </mxGeometry>
                </mxCell>
                <mxCell id="92" value="" style="endArrow=classic;html=1;exitX=0.5;exitY=0;exitDx=0;exitDy=0;entryX=1;entryY=0.5;entryDx=0;entryDy=0;" parent="1" source="90" target="77" edge="1">
                    <mxGeometry width="50" height="50" relative="1" as="geometry">
                        <mxPoint x="630" y="990" as="sourcePoint"/>
                        <mxPoint x="680" y="940" as="targetPoint"/>
                        <Array as="points">
                            <mxPoint x="1261" y="1219"/>
                        </Array>
                    </mxGeometry>
                </mxCell>
            </root>
        </mxGraphModel>
    </diagram>
</mxfile>